<?xml version="1.0" standalone="no"?>
<!DOCTYPE svg PUBLIC "-//W3C//DTD SVG 20010904//EN"
 "http://www.w3.org/TR/2001/REC-SVG-20010904/DTD/svg10.dtd">
<svg version="1.0" xmlns="http://www.w3.org/2000/svg"
 width="400.000000pt" height="400.000000pt" viewBox="0 0 400.000000 400.000000"
 preserveAspectRatio="xMidYMid meet">
<metadata>
Created by potrace 1.14, written by Peter Selinger 2001-2017
</metadata>
<g transform="translate(0.000000,400.000000) scale(0.100000,-0.100000)"
fill="#000000" stroke="none">
<path d="M2220 2948 c-234 -17 -473 -64 -655 -128 -393 -139 -614 -373 -556
-588 15 -55 76 -115 138 -136 46 -16 186 -22 230 -10 l21 6 -23 34 c-78 115
-43 287 87 429 130 142 335 240 598 287 170 30 426 30 579 0 194 -39 327 -100
418 -194 86 -88 114 -176 94 -294 -32 -179 -146 -294 -369 -370 -109 -37 -261
-70 -371 -80 l-74 -7 7 109 c13 191 46 392 91 547 13 45 21 84 18 87 -12 12
-182 2 -238 -14 -205 -60 -350 -217 -579 -626 l-98 -176 -141 -23 c-475 -76
-789 -220 -883 -403 -63 -124 -34 -231 80 -291 63 -33 240 -37 338 -7 214 64
409 248 610 576 l49 81 102 7 c56 4 125 9 154 13 l51 6 0 -184 c-1 -208 14
-303 62 -404 83 -174 227 -209 429 -105 88 46 85 41 56 91 -52 92 -88 265
-101 496 l-7 121 44 6 c24 3 98 10 164 16 591 55 910 222 965 507 84 429 -446
684 -1290 621z m-145 -485 c-55 -132 -138 -432 -152 -554 -5 -47 -6 -47 -47
-53 -22 -3 -85 -8 -139 -12 l-99 -6 33 58 c204 368 291 502 360 557 39 31 54
34 44 10z m-627 -785 c-171 -246 -434 -407 -612 -374 -76 14 -126 108 -92 174
52 101 243 180 571 238 193 33 184 36 133 -38z"/>
</g>
</svg>
